<svg xmlns="http://www.w3.org/2000/svg" viewBox="0 0 842 1191" width="32" height="32">
  <rect width="842" height="1191" rx="180" fill="#14B8A6"/>
  <path d="m170.49 410.75c-0.45 187.96-0.86 343.64-0.91 345.96l-0.08 4.21 109 0.49c0.92-458.73 1.26-592.13 1.34-592.41 0.09-0.28 87.68-0.16 194.66 0.25l194.5 0.75v-99.5c-80.21-1.16-192.19-1.5-300.59-1.5h-197.09zm-147.49 162v346.75c385.56-1.11 497.61-1.45 497.75-1.47 0.13-0.02 0.25-22.3 0.25-49.53v-49.5c-297.22-0.18-383.95-0.34-384.5-0.46-0.55-0.13-1.79-0.3-2.75-0.39-1.67-0.14-1.75-14.97-1.75-296.15v-296h-109zm299-247.25v49.5c121.28 0 208.88 0.34 272.91 0.75l116.41 0.75-0.82 592h109l0.49-692.5h-497.99zm242.75 256.66c-0.42 85.44-0.75 211.14-0.76 279.34 0 68.2-0.34 131.79-0.75 141.3l-0.74 17.31-388.5-1.61v100c200.33 1.16 312.38 1.5 378.25 1.5h119.75c0.14-180.19 0.51-335.78 0.89-462 0.39-126.23 0.69-229.56 0.66-229.63-0.03-0.06-24.35-0.44-54.05-0.84l-54-0.71z" fill="#ffffff" fill-rule="evenodd"/>
</svg>
